# xmcd CD database file
#
# Track frame offsets:
#	150
#	16773
#	34232
#	71806
#	90210
#	108992
#	128368
#	165861
#	191771
#	209095
#	241161
#	272876
#	294736
#	312438
#	331760
#
# Disc length: 4628 seconds
#
# Revision: 2
# Processed by: cddbd v1.5.2PL0 Copyright (c) Steve Scherf et al.
# Submitted via: Hanso CD Extractor 
#
DISCID=cc12120f
DTITLE=Krisspy - En Vivo
DYEAR=2010
DGENRE=Merengue
TTITLE0=La Querida
TTITLE1=Las Mujeres Ajena
TTITLE2=Morena Mia
TTITLE3=La Pago
TTITLE4=El Lloron
TTITLE5=Te He Prometido
TTITLE6=Cuando Volveras
TTITLE7=Tu No Me Ama
TTITLE8=Mas Que Tu Amigo
TTITLE9=El Mexicano Nuevo
TTITLE10=El Lechero
TTITLE11=El Cabo Vela
TTITLE12=La Calambrina
TTITLE13=La Vieja Y Su Pipa
TTITLE14=Ojos Grandes
EXTD=YEAR: 2010
EXTT0=
EXTT1=
EXTT2=
EXTT3=
EXTT4=
EXTT5=
EXTT6=
EXTT7=
EXTT8=
EXTT9=
EXTT10=
EXTT11=
EXTT12=
EXTT13=
EXTT14=
PLAYORDER=
